<svg version="1.1" id="Layer_1" xmlns="http://www.w3.org/2000/svg" xmlns:xlink="http://www.w3.org/1999/xlink" x="0px" y="0px"
	 width="100%" viewBox="0 0 1200 1200" enable-background="new 0 0 1200 1200" xml:space="preserve">
<path fill="#4960A6" opacity="1.000000" stroke="none" 
	d="
M581.000000,1201.000000 

	C387.333344,1201.000000 194.166672,1201.000000 1.000000,1201.000000 
	C1.000000,801.000000 1.000000,401.000000 1.000000,1.000000 
	C401.000000,1.000000 801.000000,1.000000 1201.000000,1.000000 
	C1201.000000,401.000000 1201.000000,801.000000 1201.000000,1201.000000 
	C994.500000,1201.000000 788.000000,1201.000000 581.000000,1201.000000 
M632.622253,554.499756 
	C632.622253,617.885071 632.622253,681.270325 632.622253,744.602295 
	C764.298523,744.602295 894.993469,744.602295 1025.586426,744.602295 
	C1025.586426,613.469482 1025.586426,482.758118 1025.586426,351.623138 
	C1023.356445,351.623138 1021.539429,351.623108 1019.722351,351.623108 
	C892.915039,351.623077 766.107788,351.622101 639.300476,351.625793 
	C632.639160,351.625977 632.625244,351.644501 632.624878,358.539734 
	C632.621033,423.526398 632.622375,488.513031 632.622253,554.499756 
M566.645691,684.262390 
	C572.754150,680.014771 575.428467,673.974915 575.569275,666.732361 
	C575.689087,660.570312 575.766052,654.398499 575.560486,648.241028 
	C575.196167,637.326599 569.495361,631.869629 558.541199,631.716492 
	C553.592773,631.647278 548.642578,631.704773 544.003113,631.704773 
	C544.003113,627.739929 544.003113,624.447083 544.003113,621.154297 
	C544.003113,556.843811 544.004944,492.533356 544.001709,428.222900 
	C544.000977,414.062744 538.860962,408.839294 524.865112,408.838226 
	C425.567078,408.830688 326.269043,408.831421 226.971024,408.836609 
	C212.735687,408.837372 207.703796,413.850372 207.702667,428.014587 
	C207.697525,492.491669 207.700439,556.968750 207.700439,621.445801 
	C207.700439,624.591187 207.700424,627.736572 207.700424,631.738342 
	C202.314774,631.738342 196.870514,631.568481 191.440674,631.776062 
	C182.081467,632.133728 176.332474,637.956238 176.058533,647.328491 
	C175.878479,653.487915 175.962173,659.656555 176.007065,665.820557 
	C176.105957,679.400452 184.555573,687.902710 198.269714,687.906982 
	C316.560974,687.943909 434.852295,687.962280 553.143311,687.791748 
	C557.444946,687.785583 561.743652,685.769470 566.645691,684.262390 
M386.341339,826.226318 
	C388.704926,830.627319 390.980164,835.078674 393.455353,839.416016 
	C396.291046,844.385071 400.512543,844.359070 403.260071,839.314087 
	C407.001892,832.443298 410.542969,825.463440 414.203064,818.547729 
	C415.069672,816.910339 416.067535,815.342346 417.005005,813.742432 
	C417.379089,813.880127 417.753174,814.017761 418.127258,814.155457 
	C418.127258,825.714478 418.127258,837.273499 418.127258,848.912598 
	C421.202759,848.912598 423.762634,848.912598 426.338867,848.912598 
	C426.338867,831.212830 426.338867,813.955261 426.338867,796.772583 
	C417.582520,795.131104 417.083282,795.374878 413.427979,802.384033 
	C408.506348,811.821228 403.553833,821.242249 398.351410,831.172546 
	C393.104065,821.233887 388.069489,811.690125 383.027130,802.150574 
	C379.418060,795.322632 378.474091,794.929749 370.223297,796.922119 
	C370.223297,814.133545 370.223297,831.404541 370.223297,849.008301 
	C372.948273,849.008301 375.518982,849.008301 378.919586,849.008301 
	C378.919586,837.406372 378.919586,826.129578 378.919586,814.852722 
	C379.299835,814.805481 379.680084,814.758301 380.060333,814.711121 
	C382.051270,818.325378 384.042206,821.939575 386.341339,826.226318 
M513.487305,796.125977 
	C509.175415,796.125977 504.863556,796.125977 500.578156,796.125977 
	C500.227661,797.114014 499.824829,797.723267 499.822021,798.334412 
	C499.748596,814.326050 499.652252,830.318726 499.828094,846.308167 
	C499.839325,847.330933 501.968903,849.135132 503.188721,849.202332 
	C508.836121,849.513550 514.515503,849.496399 520.173889,849.308899 
	C536.358093,848.772888 546.262390,838.195923 546.011597,821.895935 
	C545.775696,806.567078 535.221619,796.319153 519.469543,796.130798 
	C517.803711,796.110901 516.137451,796.126709 513.487305,796.125977 
M929.916016,825.238037 
	C930.496155,813.523987 926.882935,803.830078 916.034851,798.089111 
	C905.582764,792.557678 892.627258,794.687317 884.706543,802.828674 
	C876.445679,811.319641 874.620911,825.652466 880.389526,836.737427 
	C885.744629,847.027588 896.726868,852.040710 909.124084,849.854248 
	C920.449280,847.856750 928.039490,839.180603 929.916016,825.238037 
M221.126251,823.409302 
	C221.914673,849.879578 248.853546,855.090271 263.863556,846.709290 
	C265.203918,845.960876 267.051514,844.528503 267.108734,843.338928 
	C267.425507,836.754700 267.260468,830.147278 267.260468,823.123169 
	C263.851105,823.123169 261.208984,823.123169 258.566864,823.123169 
	C255.816711,823.123169 253.066559,823.123169 250.417007,823.123169 
	C249.838074,828.752014 249.838074,828.752014 257.784027,831.335693 
	C259.161499,840.280334 257.834503,841.974548 249.341125,842.114990 
	C241.606232,842.242859 235.750580,838.652588 233.008041,832.100586 
	C229.442032,823.581360 231.158539,812.662354 236.891953,807.394714 
	C241.781860,802.902039 250.603271,802.072083 257.574280,805.448853 
	C263.585693,808.360779 264.310211,808.054565 266.720917,801.295044 
	C257.462952,794.272339 247.232437,793.172791 236.673370,797.425598 
	C225.632355,801.872498 221.415298,811.105713 221.126251,823.409302 
M978.587280,795.953674 
	C974.065247,798.580994 968.651733,800.361206 965.194458,804.000183 
	C956.130371,813.540466 956.481873,831.574890 965.045349,841.265259 
	C973.651855,851.004333 991.141785,853.401733 1002.118347,846.241455 
	C1003.244690,845.506592 1004.661621,844.129517 1004.705139,843.002502 
	C1004.953186,836.579529 1004.825439,830.142029 1004.825439,823.125061 
	C999.903320,823.125061 995.618835,823.202087 991.338867,823.095764 
	C988.820618,823.033142 987.202087,823.477173 987.254272,826.569702 
	C987.301697,829.377502 988.442017,830.474976 991.166382,830.381653 
	C992.608459,830.332153 994.061768,830.608826 995.415527,830.729858 
	C996.936035,840.223816 995.563416,841.969543 986.821899,842.112366 
	C979.089111,842.238647 973.282043,838.670288 970.513611,832.091187 
	C966.956116,823.636902 968.701355,812.615234 974.423340,807.399963 
	C979.368896,802.892334 988.035400,802.078735 995.088562,805.459778 
	C1001.113525,808.348022 1001.859985,808.031250 1004.200439,801.336853 
	C996.888611,795.383850 988.483276,794.170227 978.587280,795.953674 
M616.773438,833.624817 
	C612.562317,822.779724 608.182129,811.995728 604.234131,801.055664 
	C602.898132,797.353577 601.163513,796.044373 597.122253,795.933289 
	C592.767822,795.813599 591.482544,797.923401 590.207031,801.304932 
	C584.752991,815.764160 579.109741,830.151978 573.559814,844.575195 
	C573.051514,845.896362 572.716125,847.284058 572.140076,849.164185 
	C576.478333,848.742981 580.887085,851.502441 583.195679,845.673340 
	C586.907654,836.300720 587.048462,836.356506 597.163391,836.356628 
	C598.327637,836.356628 599.521423,836.525146 600.651184,836.327698 
	C606.239441,835.351196 609.038208,837.634705 610.542236,843.157349 
	C612.380066,849.905823 615.061951,850.796997 622.357727,848.245056 
	C620.568665,843.614380 618.782288,838.990601 616.773438,833.624817 
M729.056519,804.458679 
	C723.400879,819.124573 717.745239,833.790466 711.845154,849.090210 
	C716.413147,848.804626 721.679810,851.732666 722.926270,845.738464 
	C724.728699,837.070312 729.805054,835.050476 737.540955,836.330688 
	C738.674255,836.518250 739.894531,836.524658 741.024841,836.328491 
	C746.487976,835.380188 749.014343,837.839294 750.482666,843.042664 
	C752.415649,849.892761 754.694885,850.673035 762.215271,848.385437 
	C761.757202,847.001465 761.357727,845.600647 760.835632,844.247070 
	C755.333191,829.981201 749.634033,815.787292 744.405762,801.421936 
	C742.896729,797.275696 740.859558,796.092834 736.528809,795.939392 
	C730.422852,795.723022 731.170898,800.676086 729.056519,804.458679 
M331.639465,813.209534 
	C334.757202,807.805969 337.874939,802.402405 341.117065,796.783325 
	C331.487518,795.153137 331.183838,795.292053 327.112274,802.934814 
	C323.998535,808.779663 320.899811,814.632568 317.607849,820.833374 
	C314.037109,814.166443 310.689240,807.888855 307.315826,801.624939 
	C304.070709,795.599121 301.399841,794.662598 294.249268,797.237427 
	C298.116119,803.879944 301.584137,810.720703 305.880981,816.993713 
	C311.182861,824.734009 313.521454,832.858765 312.762421,842.265564 
	C312.159119,849.742249 312.647644,849.796204 320.039948,849.295044 
	C320.823761,849.241882 321.587372,848.891052 322.467194,848.648865 
	C322.554138,847.171265 322.856049,845.822083 322.674133,844.541626 
	C321.039337,833.034302 324.417786,822.956665 331.639465,813.209534 
M654.630371,796.123413 
	C652.195984,796.123413 649.761536,796.123413 647.096313,796.123413 
	C647.096313,799.130676 647.096313,801.500793 647.096313,804.363159 
	C650.834351,804.363159 654.155334,804.550171 657.445923,804.313538 
	C661.147156,804.047302 662.413086,805.445251 662.353210,809.173523 
	C662.168640,820.669006 662.276794,832.169434 662.307373,843.667786 
	C662.312073,845.421204 662.508667,847.174072 662.615723,848.913940 
	C666.083984,848.913940 668.971802,848.913940 672.356384,848.913940 
	C672.356384,846.673340 672.356201,844.870056 672.356445,843.066833 
	C672.357727,832.068298 672.520264,821.066162 672.279602,810.072937 
	C672.185974,805.796936 673.397278,803.879517 677.904419,804.301880 
	C681.136475,804.604736 684.419739,804.360840 687.730469,804.360840 
	C687.730469,801.272034 687.730469,799.008606 687.730469,796.123413 
	C676.838806,796.123413 666.218323,796.123413 654.630371,796.123413 
M829.015747,814.500854 
	C829.015747,808.567688 829.015747,802.634521 829.015747,796.474609 
	C825.486145,796.474609 822.603577,796.474609 819.425415,796.474609 
	C819.425415,814.044739 819.425415,831.270996 819.425415,848.838623 
	C829.551880,848.838623 839.533569,848.838623 849.475647,848.838623 
	C849.475647,846.085022 849.475647,843.854797 849.475647,840.990540 
	C842.544006,840.990540 835.992249,840.990540 829.015747,840.990540 
	C829.015747,832.070251 829.015747,823.785461 829.015747,814.500854 
z"/>
<path fill="#F6AF85" opacity="1.000000" stroke="none" 
	d="
M632.622192,553.999756 
	C632.622375,488.513031 632.621033,423.526398 632.624878,358.539734 
	C632.625244,351.644501 632.639160,351.625977 639.300476,351.625793 
	C766.107788,351.622101 892.915039,351.623077 1019.722351,351.623108 
	C1021.539429,351.623108 1023.356445,351.623138 1025.586426,351.623138 
	C1025.586426,482.758118 1025.586426,613.469482 1025.586426,744.602295 
	C894.993469,744.602295 764.298523,744.602295 632.622253,744.602295 
	C632.622253,681.270325 632.622253,617.885071 632.622192,553.999756 
M799.071106,561.500000 
	C799.071106,577.233276 799.071106,592.966614 799.071106,607.968079 
	C818.865112,607.968079 837.944336,609.517090 856.661987,607.577148 
	C880.222961,605.135315 895.994507,590.954224 903.299194,568.169739 
	C906.906738,556.917114 906.435242,545.408203 905.239258,533.718445 
	C902.817810,510.050812 878.509583,486.570129 854.748657,485.948395 
	C838.140320,485.513794 821.525269,485.340149 804.913025,485.058319 
	C803.140991,485.028229 801.367981,485.054260 799.071106,485.054260 
	C799.071106,510.639191 799.071106,535.569580 799.071106,561.500000 
M666.368286,533.126770 
	C664.137817,544.180298 664.785950,555.037842 667.921326,565.895813 
	C672.978271,583.408203 683.364807,596.223267 699.963013,603.972351 
	C712.077759,609.628357 724.861328,610.884766 737.959167,609.909241 
	C749.777771,609.028870 760.831421,605.516479 770.560059,598.679810 
	C772.303345,597.454712 773.610535,594.417358 773.666382,592.180481 
	C773.978516,579.687988 773.853943,567.184326 773.850159,554.684509 
	C773.849609,553.064575 773.684387,551.444641 773.583679,549.610107 
	C760.875671,549.610107 748.525879,549.610107 735.757019,549.610107 
	C735.757019,552.165466 735.894592,554.322021 735.728210,556.454773 
	C735.388245,560.813171 737.289185,562.457458 741.608521,562.178223 
	C745.757568,561.909973 749.945801,562.284607 754.102112,562.079163 
	C757.346741,561.918884 758.571899,563.110107 758.500061,566.372498 
	C758.360779,572.702026 758.382202,579.041748 758.587646,585.369141 
	C758.683044,588.308533 757.583496,589.887024 754.923706,591.073425 
	C742.732849,596.511414 730.334473,598.538147 717.084229,595.252563 
	C700.947632,591.251343 689.768005,581.758606 685.624268,565.785889 
	C683.370911,557.099915 682.785278,547.638428 683.350037,538.646240 
	C684.157471,525.791199 689.504639,514.250122 700.480530,506.810913 
	C717.724060,495.123627 736.319885,495.651825 754.079407,504.899048 
	C767.190979,511.726135 766.260742,508.977936 771.680420,500.505737 
	C771.832825,500.267609 771.745667,499.876282 771.837708,498.676788 
	C768.066345,496.247131 764.117981,493.254120 759.786926,490.994751 
	C744.903015,483.230316 729.057312,482.578430 712.890503,485.447693 
	C701.383911,487.489838 691.174744,492.443115 682.992554,500.798492 
	C674.393494,509.579468 669.299927,520.371887 666.368286,533.126770 
M988.479980,609.007996 
	C992.414734,609.007996 996.349487,609.007996 1000.804138,609.007996 
	C1000.804138,606.007812 1000.806702,603.709839 1000.803650,601.411865 
	C1000.794739,594.810059 1000.793884,594.799683 994.419312,594.796387 
	C980.593079,594.789246 966.766846,594.803833 952.940613,594.781067 
	C951.165344,594.778137 949.390259,594.605652 946.962097,594.477112 
	C946.962097,557.833008 946.962097,521.638123 946.962097,485.296722 
	C941.180725,485.296722 936.084106,485.296722 930.665466,485.296722 
	C930.665466,526.575806 930.665466,567.595276 930.665466,609.007996 
	C949.875000,609.007996 968.680237,609.007996 988.479980,609.007996 
z"/>
<path fill="#F5AE85" opacity="1.000000" stroke="none" 
	d="
M566.344727,684.476257 
	C561.743652,685.769470 557.444946,687.785583 553.143311,687.791748 
	C434.852295,687.962280 316.560974,687.943909 198.269714,687.906982 
	C184.555573,687.902710 176.105957,679.400452 176.007065,665.820557 
	C175.962173,659.656555 175.878479,653.487915 176.058533,647.328491 
	C176.332474,637.956238 182.081467,632.133728 191.440674,631.776062 
	C196.870514,631.568481 202.314774,631.738342 207.700424,631.738342 
	C207.700424,627.736572 207.700439,624.591187 207.700439,621.445801 
	C207.700439,556.968750 207.697525,492.491669 207.702667,428.014587 
	C207.703796,413.850372 212.735687,408.837372 226.971024,408.836609 
	C326.269043,408.831421 425.567078,408.830688 524.865112,408.838226 
	C538.860962,408.839294 544.000977,414.062744 544.001709,428.222900 
	C544.004944,492.533356 544.003113,556.843811 544.003113,621.154297 
	C544.003113,624.447083 544.003113,627.739929 544.003113,631.704773 
	C548.642578,631.704773 553.592773,631.647278 558.541199,631.716492 
	C569.495361,631.869629 575.196167,637.326599 575.560486,648.241028 
	C575.766052,654.398499 575.689087,660.570312 575.569275,666.732361 
	C575.428467,673.974915 572.754150,680.014771 566.344727,684.476257 
M486.500000,418.063263 
	C400.201294,418.063293 313.902588,418.062408 227.603867,418.064850 
	C218.136322,418.065125 216.963562,419.234314 216.963135,428.678833 
	C216.960205,492.986420 216.961411,557.294006 216.963150,621.601624 
	C216.963196,622.934265 216.932800,624.269897 217.008377,625.598877 
	C217.208618,629.120483 219.157745,631.118225 222.595734,631.521240 
	C224.571457,631.752869 226.585190,631.706238 228.581818,631.706482 
	C303.885010,631.714355 379.188232,631.713318 454.491425,631.712891 
	C478.315216,631.712769 502.139099,631.740662 525.962769,631.690796 
	C532.792969,631.676514 534.691711,629.806091 534.694397,623.119507 
	C534.720398,557.812317 534.720825,492.505096 534.695557,427.197906 
	C534.692688,419.835815 532.872681,418.090027 525.484802,418.072388 
	C512.823242,418.042145 500.161591,418.063568 486.500000,418.063263 
M411.440125,652.944336 
	C408.351227,658.057373 403.898590,659.535278 397.960449,659.288025 
	C386.814636,658.824036 375.528564,658.183044 364.497620,659.399658 
	C350.617828,660.930481 340.214661,657.088135 333.208984,644.851501 
	C333.046112,644.567017 332.837067,644.229797 332.563080,644.100647 
	C330.313873,643.040894 328.053558,641.155212 325.779175,641.130554 
	C304.617889,640.901489 283.453094,640.994629 262.289337,640.994690 
	C239.459122,640.994751 216.628891,640.978943 193.798706,641.006592 
	C187.818161,641.013855 185.560684,642.683594 185.389084,647.783264 
	C185.165085,654.439758 185.117493,661.123901 185.465286,667.771545 
	C185.787186,673.923889 189.908844,677.777893 196.049042,678.367737 
	C197.868088,678.542480 199.710190,678.516113 201.541733,678.516174 
	C317.692505,678.522217 433.843292,678.521790 549.994080,678.517639 
	C551.659790,678.517578 553.331665,678.543274 554.990112,678.417786 
	C561.929260,677.892700 565.962219,673.729797 566.093384,666.830627 
	C566.194763,661.499939 566.126892,656.165833 566.119324,650.833252 
	C566.107178,642.232483 564.887390,640.998169 556.331665,640.997009 
	C516.503784,640.991699 476.668762,641.409546 436.852661,640.724731 
	C425.870026,640.535767 417.483368,642.612915 411.440125,652.944336 
M407.856995,641.287598 
	C386.396393,641.287598 364.935791,641.287598 343.239044,641.287598 
	C346.619904,648.082458 351.214081,650.531311 358.377533,650.118042 
	C369.998688,649.447754 381.719055,649.413818 393.334808,650.129333 
	C400.566345,650.574829 404.972809,647.881104 407.856995,641.287598 
z"/>
<path fill="#EFAC86" opacity="1.000000" stroke="none" 
	d="
M386.187225,825.890076 
	C384.042206,821.939575 382.051270,818.325378 380.060333,814.711121 
	C379.680084,814.758301 379.299835,814.805481 378.919586,814.852722 
	C378.919586,826.129578 378.919586,837.406372 378.919586,849.008301 
	C375.518982,849.008301 372.948273,849.008301 370.223297,849.008301 
	C370.223297,831.404541 370.223297,814.133545 370.223297,796.922119 
	C378.474091,794.929749 379.418060,795.322632 383.027130,802.150574 
	C388.069489,811.690125 393.104065,821.233887 398.351410,831.172546 
	C403.553833,821.242249 408.506348,811.821228 413.427979,802.384033 
	C417.083282,795.374878 417.582520,795.131104 426.338867,796.772583 
	C426.338867,813.955261 426.338867,831.212830 426.338867,848.912598 
	C423.762634,848.912598 421.202759,848.912598 418.127258,848.912598 
	C418.127258,837.273499 418.127258,825.714478 418.127258,814.155457 
	C417.753174,814.017761 417.379089,813.880127 417.005005,813.742432 
	C416.067535,815.342346 415.069672,816.910339 414.203064,818.547729 
	C410.542969,825.463440 407.001892,832.443298 403.260071,839.314087 
	C400.512543,844.359070 396.291046,844.385071 393.455353,839.416016 
	C390.980164,835.078674 388.704926,830.627319 386.187225,825.890076 
z"/>
<path fill="#F0AC86" opacity="1.000000" stroke="none" 
	d="
M513.979370,796.125977 
	C516.137451,796.126709 517.803711,796.110901 519.469543,796.130798 
	C535.221619,796.319153 545.775696,806.567078 546.011597,821.895935 
	C546.262390,838.195923 536.358093,848.772888 520.173889,849.308899 
	C514.515503,849.496399 508.836121,849.513550 503.188721,849.202332 
	C501.968903,849.135132 499.839325,847.330933 499.828094,846.308167 
	C499.652252,830.318726 499.748596,814.326050 499.822021,798.334412 
	C499.824829,797.723267 500.227661,797.114014 500.578156,796.125977 
	C504.863556,796.125977 509.175415,796.125977 513.979370,796.125977 
M521.949036,841.034119 
	C534.095825,839.499817 537.123291,828.016357 535.703003,818.858398 
	C534.210388,809.234741 528.776672,804.605286 519.104675,804.355652 
	C517.941223,804.325623 516.761414,804.469360 515.614746,804.326599 
	C511.209167,803.778320 509.391693,805.297546 509.595276,810.075623 
	C509.963013,818.708374 509.680756,827.368103 509.717896,836.016418 
	C509.724701,837.601562 509.959167,839.185730 510.115875,841.104675 
	C514.118225,841.104675 517.588379,841.104675 521.949036,841.034119 
z"/>
<path fill="#F0AC86" opacity="1.000000" stroke="none" 
	d="
M929.893127,825.688843 
	C928.039490,839.180603 920.449280,847.856750 909.124084,849.854248 
	C896.726868,852.040710 885.744629,847.027588 880.389526,836.737427 
	C874.620911,825.652466 876.445679,811.319641 884.706543,802.828674 
	C892.627258,794.687317 905.582764,792.557678 916.034851,798.089111 
	C926.882935,803.830078 930.496155,813.523987 929.893127,825.688843 
M899.167297,803.914490 
	C886.246704,806.767334 884.576538,825.716553 890.200989,834.938904 
	C893.598999,840.510681 898.822571,842.508484 905.093689,842.069214 
	C911.094666,841.648865 915.973633,838.765625 917.735474,833.094055 
	C919.213562,828.335754 919.966614,822.935608 919.355469,818.029602 
	C917.990540,807.072449 911.113403,802.423340 899.167297,803.914490 
z"/>
<path fill="#F0AC86" opacity="1.000000" stroke="none" 
	d="
M221.126312,822.956543 
	C221.415298,811.105713 225.632355,801.872498 236.673370,797.425598 
	C247.232437,793.172791 257.462952,794.272339 266.720917,801.295044 
	C264.310211,808.054565 263.585693,808.360779 257.574280,805.448853 
	C250.603271,802.072083 241.781860,802.902039 236.891953,807.394714 
	C231.158539,812.662354 229.442032,823.581360 233.008041,832.100586 
	C235.750580,838.652588 241.606232,842.242859 249.341125,842.114990 
	C257.834503,841.974548 259.161499,840.280334 257.784027,831.335693 
	C249.838074,828.752014 249.838074,828.752014 250.417007,823.123169 
	C253.066559,823.123169 255.816711,823.123169 258.566864,823.123169 
	C261.208984,823.123169 263.851105,823.123169 267.260468,823.123169 
	C267.260468,830.147278 267.425507,836.754700 267.108734,843.338928 
	C267.051514,844.528503 265.203918,845.960876 263.863556,846.709290 
	C248.853546,855.090271 221.914673,849.879578 221.126312,822.956543 
z"/>
<path fill="#EFAC86" opacity="1.000000" stroke="none" 
	d="
M978.998413,795.860474 
	C988.483276,794.170227 996.888611,795.383850 1004.200439,801.336853 
	C1001.859985,808.031250 1001.113525,808.348022 995.088562,805.459778 
	C988.035400,802.078735 979.368896,802.892334 974.423340,807.399963 
	C968.701355,812.615234 966.956116,823.636902 970.513611,832.091187 
	C973.282043,838.670288 979.089111,842.238647 986.821899,842.112366 
	C995.563416,841.969543 996.936035,840.223816 995.415527,830.729858 
	C994.061768,830.608826 992.608459,830.332153 991.166382,830.381653 
	C988.442017,830.474976 987.301697,829.377502 987.254272,826.569702 
	C987.202087,823.477173 988.820618,823.033142 991.338867,823.095764 
	C995.618835,823.202087 999.903320,823.125061 1004.825439,823.125061 
	C1004.825439,830.142029 1004.953186,836.579529 1004.705139,843.002502 
	C1004.661621,844.129517 1003.244690,845.506592 1002.118347,846.241455 
	C991.141785,853.401733 973.651855,851.004333 965.045349,841.265259 
	C956.481873,831.574890 956.130371,813.540466 965.194458,804.000183 
	C968.651733,800.361206 974.065247,798.580994 978.998413,795.860474 
z"/>
<path fill="#F0AC86" opacity="1.000000" stroke="none" 
	d="
M616.884644,833.995850 
	C618.782288,838.990601 620.568665,843.614380 622.357727,848.245056 
	C615.061951,850.796997 612.380066,849.905823 610.542236,843.157349 
	C609.038208,837.634705 606.239441,835.351196 600.651184,836.327698 
	C599.521423,836.525146 598.327637,836.356628 597.163391,836.356628 
	C587.048462,836.356506 586.907654,836.300720 583.195679,845.673340 
	C580.887085,851.502441 576.478333,848.742981 572.140076,849.164185 
	C572.716125,847.284058 573.051514,845.896362 573.559814,844.575195 
	C579.109741,830.151978 584.752991,815.764160 590.207031,801.304932 
	C591.482544,797.923401 592.767822,795.813599 597.122253,795.933289 
	C601.163513,796.044373 602.898132,797.353577 604.234131,801.055664 
	C608.182129,811.995728 612.562317,822.779724 616.884644,833.995850 
M590.198669,826.120667 
	C590.812134,827.111511 591.374146,828.917480 592.047607,828.960022 
	C596.229126,829.224487 600.435730,829.093140 605.337280,829.093140 
	C602.596375,821.443359 600.172791,814.679016 597.280151,806.605591 
	C594.740051,813.664490 592.636658,819.510010 590.198669,826.120667 
z"/>
<path fill="#F0AC86" opacity="1.000000" stroke="none" 
	d="
M729.186951,804.094604 
	C731.170898,800.676086 730.422852,795.723022 736.528809,795.939392 
	C740.859558,796.092834 742.896729,797.275696 744.405762,801.421936 
	C749.634033,815.787292 755.333191,829.981201 760.835632,844.247070 
	C761.357727,845.600647 761.757202,847.001465 762.215271,848.385437 
	C754.694885,850.673035 752.415649,849.892761 750.482666,843.042664 
	C749.014343,837.839294 746.487976,835.380188 741.024841,836.328491 
	C739.894531,836.524658 738.674255,836.518250 737.540955,836.330688 
	C729.805054,835.050476 724.728699,837.070312 722.926270,845.738464 
	C721.679810,851.732666 716.413147,848.804626 711.845154,849.090210 
	C717.745239,833.790466 723.400879,819.124573 729.186951,804.094604 
M734.242981,814.883972 
	C732.680664,819.350220 731.118408,823.816467 729.392151,828.751465 
	C735.006714,828.751465 739.807922,828.751465 745.216736,828.751465 
	C742.599609,821.449524 740.173706,814.681213 737.295654,806.651306 
	C736.094971,809.949890 735.323608,812.068970 734.242981,814.883972 
z"/>
<path fill="#EFAC86" opacity="1.000000" stroke="none" 
	d="
M331.443665,813.518921 
	C324.417786,822.956665 321.039337,833.034302 322.674133,844.541626 
	C322.856049,845.822083 322.554138,847.171265 322.467194,848.648865 
	C321.587372,848.891052 320.823761,849.241882 320.039948,849.295044 
	C312.647644,849.796204 312.159119,849.742249 312.762421,842.265564 
	C313.521454,832.858765 311.182861,824.734009 305.880981,816.993713 
	C301.584137,810.720703 298.116119,803.879944 294.249268,797.237427 
	C301.399841,794.662598 304.070709,795.599121 307.315826,801.624939 
	C310.689240,807.888855 314.037109,814.166443 317.607849,820.833374 
	C320.899811,814.632568 323.998535,808.779663 327.112274,802.934814 
	C331.183838,795.292053 331.487518,795.153137 341.117065,796.783325 
	C337.874939,802.402405 334.757202,807.805969 331.443665,813.518921 
z"/>
<path fill="#F0AC86" opacity="1.000000" stroke="none" 
	d="
M655.114075,796.123413 
	C666.218323,796.123413 676.838806,796.123413 687.730469,796.123413 
	C687.730469,799.008606 687.730469,801.272034 687.730469,804.360840 
	C684.419739,804.360840 681.136475,804.604736 677.904419,804.301880 
	C673.397278,803.879517 672.185974,805.796936 672.279602,810.072937 
	C672.520264,821.066162 672.357727,832.068298 672.356445,843.066833 
	C672.356201,844.870056 672.356384,846.673340 672.356384,848.913940 
	C668.971802,848.913940 666.083984,848.913940 662.615723,848.913940 
	C662.508667,847.174072 662.312073,845.421204 662.307373,843.667786 
	C662.276794,832.169434 662.168640,820.669006 662.353210,809.173523 
	C662.413086,805.445251 661.147156,804.047302 657.445923,804.313538 
	C654.155334,804.550171 650.834351,804.363159 647.096313,804.363159 
	C647.096313,801.500793 647.096313,799.130676 647.096313,796.123413 
	C649.761536,796.123413 652.195984,796.123413 655.114075,796.123413 
z"/>
<path fill="#F0AC86" opacity="1.000000" stroke="none" 
	d="
M829.015747,815.000732 
	C829.015747,823.785461 829.015747,832.070251 829.015747,840.990540 
	C835.992249,840.990540 842.544006,840.990540 849.475647,840.990540 
	C849.475647,843.854797 849.475647,846.085022 849.475647,848.838623 
	C839.533569,848.838623 829.551880,848.838623 819.425415,848.838623 
	C819.425415,831.270996 819.425415,814.044739 819.425415,796.474609 
	C822.603577,796.474609 825.486145,796.474609 829.015747,796.474609 
	C829.015747,802.634521 829.015747,808.567688 829.015747,815.000732 
z"/>
<path fill="#4C61A5" opacity="1.000000" stroke="none" 
	d="
M799.071106,561.000000 
	C799.071106,535.569580 799.071106,510.639191 799.071106,485.054260 
	C801.367981,485.054260 803.140991,485.028229 804.913025,485.058319 
	C821.525269,485.340149 838.140320,485.513794 854.748657,485.948395 
	C878.509583,486.570129 902.817810,510.050812 905.239258,533.718445 
	C906.435242,545.408203 906.906738,556.917114 903.299194,568.169739 
	C895.994507,590.954224 880.222961,605.135315 856.661987,607.577148 
	C837.944336,609.517090 818.865112,607.968079 799.071106,607.968079 
	C799.071106,592.966614 799.071106,577.233276 799.071106,561.000000 
M856.247925,499.948792 
	C843.022644,499.948792 829.797363,499.948792 816.327393,499.948792 
	C816.327393,531.233582 816.327393,562.912354 816.327393,594.603943 
	C829.156860,596.675659 841.694397,596.642822 854.163330,594.514954 
	C870.626892,591.705566 881.394775,582.106934 886.404846,566.202209 
	C889.987488,554.828857 890.188110,543.226807 887.440552,531.696716 
	C883.536865,515.315308 873.898804,504.187012 856.247925,499.948792 
z"/>
<path fill="#4B61A6" opacity="1.000000" stroke="none" 
	d="
M666.590942,532.759888 
	C669.299927,520.371887 674.393494,509.579468 682.992554,500.798492 
	C691.174744,492.443115 701.383911,487.489838 712.890503,485.447693 
	C729.057312,482.578430 744.903015,483.230316 759.786926,490.994751 
	C764.117981,493.254120 768.066345,496.247131 771.837708,498.676788 
	C771.745667,499.876282 771.832825,500.267609 771.680420,500.505737 
	C766.260742,508.977936 767.190979,511.726135 754.079407,504.899048 
	C736.319885,495.651825 717.724060,495.123627 700.480530,506.810913 
	C689.504639,514.250122 684.157471,525.791199 683.350037,538.646240 
	C682.785278,547.638428 683.370911,557.099915 685.624268,565.785889 
	C689.768005,581.758606 700.947632,591.251343 717.084229,595.252563 
	C730.334473,598.538147 742.732849,596.511414 754.923706,591.073425 
	C757.583496,589.887024 758.683044,588.308533 758.587646,585.369141 
	C758.382202,579.041748 758.360779,572.702026 758.500061,566.372498 
	C758.571899,563.110107 757.346741,561.918884 754.102112,562.079163 
	C749.945801,562.284607 745.757568,561.909973 741.608521,562.178223 
	C737.289185,562.457458 735.388245,560.813171 735.728210,556.454773 
	C735.894592,554.322021 735.757019,552.165466 735.757019,549.610107 
	C748.525879,549.610107 760.875671,549.610107 773.583679,549.610107 
	C773.684387,551.444641 773.849609,553.064575 773.850159,554.684509 
	C773.853943,567.184326 773.978516,579.687988 773.666382,592.180481 
	C773.610535,594.417358 772.303345,597.454712 770.560059,598.679810 
	C760.831421,605.516479 749.777771,609.028870 737.959167,609.909241 
	C724.861328,610.884766 712.077759,609.628357 699.963013,603.972351 
	C683.364807,596.223267 672.978271,583.408203 667.921326,565.895813 
	C664.785950,555.037842 664.137817,544.180298 666.590942,532.759888 
z"/>
<path fill="#4C61A5" opacity="1.000000" stroke="none" 
	d="
M987.982727,609.007996 
	C968.680237,609.007996 949.875000,609.007996 930.665466,609.007996 
	C930.665466,567.595276 930.665466,526.575806 930.665466,485.296722 
	C936.084106,485.296722 941.180725,485.296722 946.962097,485.296722 
	C946.962097,521.638123 946.962097,557.833008 946.962097,594.477112 
	C949.390259,594.605652 951.165344,594.778137 952.940613,594.781067 
	C966.766846,594.803833 980.593079,594.789246 994.419312,594.796387 
	C1000.793884,594.799683 1000.794739,594.810059 1000.803650,601.411865 
	C1000.806702,603.709839 1000.804138,606.007812 1000.804138,609.007996 
	C996.349487,609.007996 992.414734,609.007996 987.982727,609.007996 
z"/>
<path fill="#4C61A5" opacity="1.000000" stroke="none" 
	d="
M487.000000,418.063263 
	C500.161591,418.063568 512.823242,418.042145 525.484802,418.072388 
	C532.872681,418.090027 534.692688,419.835815 534.695557,427.197906 
	C534.720825,492.505096 534.720398,557.812317 534.694397,623.119507 
	C534.691711,629.806091 532.792969,631.676514 525.962769,631.690796 
	C502.139099,631.740662 478.315216,631.712769 454.491425,631.712891 
	C379.188232,631.713318 303.885010,631.714355 228.581818,631.706482 
	C226.585190,631.706238 224.571457,631.752869 222.595734,631.521240 
	C219.157745,631.118225 217.208618,629.120483 217.008377,625.598877 
	C216.932800,624.269897 216.963196,622.934265 216.963150,621.601624 
	C216.961411,557.294006 216.960205,492.986420 216.963135,428.678833 
	C216.963562,419.234314 218.136322,418.065125 227.603867,418.064850 
	C313.902588,418.062408 400.201294,418.063293 487.000000,418.063263 
M236.793274,469.500122 
	C236.792770,511.496948 236.788025,553.493774 236.795593,595.490601 
	C236.796997,603.316589 237.546738,604.057800 245.386047,604.058105 
	C332.212891,604.061951 419.039764,604.061890 505.866608,604.057434 
	C514.102661,604.057007 514.916687,603.221497 514.917480,594.809082 
	C514.921753,548.312561 514.920044,501.816010 514.917969,455.319489 
	C514.917542,446.358521 514.341675,445.793854 505.185120,445.793701 
	C418.858215,445.792358 332.531342,445.793243 246.204437,445.793793 
	C245.204514,445.793793 244.201660,445.849060 243.205185,445.791443 
	C238.801086,445.536713 236.725006,447.565460 236.789078,452.001892 
	C236.868484,457.500214 236.798630,463.000702 236.793274,469.500122 
M366.207642,619.943420 
	C370.347992,624.670044 375.839935,622.372009 380.715302,622.331848 
	C382.448364,622.317627 384.159363,619.620850 385.880463,618.148621 
	C384.169342,616.485168 382.708435,613.942810 380.687500,613.367432 
	C377.765930,612.535522 374.433014,613.004089 371.285919,613.146301 
	C367.561737,613.314575 365.288788,614.993591 366.207642,619.943420 
M379.786469,435.090820 
	C379.717590,432.899261 380.404358,429.356812 379.418182,428.805237 
	C377.526764,427.747223 374.522247,427.868866 372.315338,428.565277 
	C371.370728,428.863403 370.366638,432.881500 370.949615,433.378143 
	C372.688477,434.859589 375.174469,435.506165 377.430756,436.302917 
	C377.882782,436.462524 378.609100,435.845367 379.786469,435.090820 
z"/>
<path fill="#4C61A5" opacity="1.000000" stroke="none" 
	d="
M411.679535,652.678528 
	C417.483368,642.612915 425.870026,640.535767 436.852661,640.724731 
	C476.668762,641.409546 516.503784,640.991699 556.331665,640.997009 
	C564.887390,640.998169 566.107178,642.232483 566.119324,650.833252 
	C566.126892,656.165833 566.194763,661.499939 566.093384,666.830627 
	C565.962219,673.729797 561.929260,677.892700 554.990112,678.417786 
	C553.331665,678.543274 551.659790,678.517578 549.994080,678.517639 
	C433.843292,678.521790 317.692505,678.522217 201.541733,678.516174 
	C199.710190,678.516113 197.868088,678.542480 196.049042,678.367737 
	C189.908844,677.777893 185.787186,673.923889 185.465286,667.771545 
	C185.117493,661.123901 185.165085,654.439758 185.389084,647.783264 
	C185.560684,642.683594 187.818161,641.013855 193.798706,641.006592 
	C216.628891,640.978943 239.459122,640.994751 262.289337,640.994690 
	C283.453094,640.994629 304.617889,640.901489 325.779175,641.130554 
	C328.053558,641.155212 330.313873,643.040894 332.563080,644.100647 
	C332.837067,644.229797 333.046112,644.567017 333.208984,644.851501 
	C340.214661,657.088135 350.617828,660.930481 364.497620,659.399658 
	C375.528564,658.183044 386.814636,658.824036 397.960449,659.288025 
	C403.898590,659.535278 408.351227,658.057373 411.679535,652.678528 
M254.991150,658.752502 
	C252.373901,654.726196 239.444702,653.267761 236.280609,656.641968 
	C233.900589,659.179993 234.992371,663.553101 238.516006,663.964722 
	C242.904434,664.477417 247.442978,664.361267 251.829453,663.815552 
	C253.068985,663.661316 254.003464,661.055237 254.991150,658.752502 
M201.403046,661.183960 
	C202.784286,662.200867 204.079727,663.913452 205.563797,664.096497 
	C209.149094,664.538635 212.924850,664.776001 216.418335,664.073669 
	C218.243973,663.706726 219.635742,661.181396 221.223465,659.630920 
	C219.590012,658.116577 218.169022,655.760193 216.274124,655.282166 
	C213.315170,654.535706 210.034225,655.009155 206.891373,655.063110 
	C203.424469,655.122620 201.203964,656.614441 201.403046,661.183960 
z"/>
<path fill="#4C61A5" opacity="1.000000" stroke="none" 
	d="
M407.995178,641.616455 
	C404.972809,647.881104 400.566345,650.574829 393.334808,650.129333 
	C381.719055,649.413818 369.998688,649.447754 358.377533,650.118042 
	C351.214081,650.531311 346.619904,648.082458 343.239044,641.287598 
	C364.935791,641.287598 386.396393,641.287598 407.995178,641.616455 
z"/>
<path fill="#4B61A6" opacity="1.000000" stroke="none" 
	d="
M521.503784,841.069397 
	C517.588379,841.104675 514.118225,841.104675 510.115875,841.104675 
	C509.959167,839.185730 509.724701,837.601562 509.717896,836.016418 
	C509.680756,827.368103 509.963013,818.708374 509.595276,810.075623 
	C509.391693,805.297546 511.209167,803.778320 515.614746,804.326599 
	C516.761414,804.469360 517.941223,804.325623 519.104675,804.355652 
	C528.776672,804.605286 534.210388,809.234741 535.703003,818.858398 
	C537.123291,828.016357 534.095825,839.499817 521.503784,841.069397 
z"/>
<path fill="#4B61A6" opacity="1.000000" stroke="none" 
	d="
M899.595825,803.840454 
	C911.113403,802.423340 917.990540,807.072449 919.355469,818.029602 
	C919.966614,822.935608 919.213562,828.335754 917.735474,833.094055 
	C915.973633,838.765625 911.094666,841.648865 905.093689,842.069214 
	C898.822571,842.508484 893.598999,840.510681 890.200989,834.938904 
	C884.576538,825.716553 886.246704,806.767334 899.595825,803.840454 
z"/>
<path fill="#4C61A5" opacity="1.000000" stroke="none" 
	d="
M590.365967,825.738098 
	C592.636658,819.510010 594.740051,813.664490 597.280151,806.605591 
	C600.172791,814.679016 602.596375,821.443359 605.337280,829.093140 
	C600.435730,829.093140 596.229126,829.224487 592.047607,828.960022 
	C591.374146,828.917480 590.812134,827.111511 590.365967,825.738098 
z"/>
<path fill="#4C61A5" opacity="1.000000" stroke="none" 
	d="
M734.397583,814.536011 
	C735.323608,812.068970 736.094971,809.949890 737.295654,806.651306 
	C740.173706,814.681213 742.599609,821.449524 745.216736,828.751465 
	C739.807922,828.751465 735.006714,828.751465 729.392151,828.751465 
	C731.118408,823.816467 732.680664,819.350220 734.397583,814.536011 
z"/>
<path fill="#F6AF85" opacity="1.000000" stroke="none" 
	d="
M856.664917,500.014435 
	C873.898804,504.187012 883.536865,515.315308 887.440552,531.696716 
	C890.188110,543.226807 889.987488,554.828857 886.404846,566.202209 
	C881.394775,582.106934 870.626892,591.705566 854.163330,594.514954 
	C841.694397,596.642822 829.156860,596.675659 816.327393,594.603943 
	C816.327393,562.912354 816.327393,531.233582 816.327393,499.948792 
	C829.797363,499.948792 843.022644,499.948792 856.664917,500.014435 
z"/>
<path fill="#F5AF85" opacity="1.000000" stroke="none" 
	d="
M236.793274,469.000183 
	C236.798630,463.000702 236.868484,457.500214 236.789078,452.001892 
	C236.725006,447.565460 238.801086,445.536713 243.205185,445.791443 
	C244.201660,445.849060 245.204514,445.793793 246.204437,445.793793 
	C332.531342,445.793243 418.858215,445.792358 505.185120,445.793701 
	C514.341675,445.793854 514.917542,446.358521 514.917969,455.319489 
	C514.920044,501.816010 514.921753,548.312561 514.917480,594.809082 
	C514.916687,603.221497 514.102661,604.057007 505.866608,604.057434 
	C419.039764,604.061890 332.212891,604.061951 245.386047,604.058105 
	C237.546738,604.057800 236.796997,603.316589 236.795593,595.490601 
	C236.788025,553.493774 236.792770,511.496948 236.793274,469.000183 
M423.500000,455.019928 
	C364.443390,455.019928 305.386780,455.019928 246.319183,455.019928 
	C246.319183,501.999023 246.319183,548.086853 246.319183,594.842712 
	C248.556427,594.842712 250.502457,594.842773 252.448486,594.842773 
	C334.589478,594.842773 416.730499,594.843384 498.871490,594.841492 
	C505.490936,594.841370 505.512268,594.833252 505.513306,588.404663 
	C505.520020,546.084595 505.520844,503.764465 505.504089,461.444366 
	C505.503326,459.477997 505.316711,457.511719 505.189880,455.019928 
	C478.062622,455.019928 451.281311,455.019928 423.500000,455.019928 
z"/>
<path fill="#EBAA87" opacity="1.000000" stroke="none" 
	d="
M366.083557,619.553162 
	C365.288788,614.993591 367.561737,613.314575 371.285919,613.146301 
	C374.433014,613.004089 377.765930,612.535522 380.687500,613.367432 
	C382.708435,613.942810 384.169342,616.485168 385.880463,618.148621 
	C384.159363,619.620850 382.448364,622.317627 380.715302,622.331848 
	C375.839935,622.372009 370.347992,624.670044 366.083557,619.553162 
z"/>
<path fill="#EBAA87" opacity="1.000000" stroke="none" 
	d="
M379.497711,435.338593 
	C378.609100,435.845367 377.882782,436.462524 377.430756,436.302917 
	C375.174469,435.506165 372.688477,434.859589 370.949615,433.378143 
	C370.366638,432.881500 371.370728,428.863403 372.315338,428.565277 
	C374.522247,427.868866 377.526764,427.747223 379.418182,428.805237 
	C380.404358,429.356812 379.717590,432.899261 379.497711,435.338593 
z"/>
<path fill="#F2AD86" opacity="1.000000" stroke="none" 
	d="
M255.034485,659.163086 
	C254.003464,661.055237 253.068985,663.661316 251.829453,663.815552 
	C247.442978,664.361267 242.904434,664.477417 238.516006,663.964722 
	C234.992371,663.553101 233.900589,659.179993 236.280609,656.641968 
	C239.444702,653.267761 252.373901,654.726196 255.034485,659.163086 
z"/>
<path fill="#F2AD86" opacity="1.000000" stroke="none" 
	d="
M201.299210,660.796753 
	C201.203964,656.614441 203.424469,655.122620 206.891373,655.063110 
	C210.034225,655.009155 213.315170,654.535706 216.274124,655.282166 
	C218.169022,655.760193 219.590012,658.116577 221.223450,659.630920 
	C219.635742,661.181396 218.243973,663.706726 216.418335,664.073669 
	C212.924850,664.776001 209.149094,664.538635 205.563797,664.096497 
	C204.079727,663.913452 202.784286,662.200867 201.299210,660.796753 
z"/>
<path fill="#4B61A6" opacity="1.000000" stroke="none" 
	d="
M424.000000,455.019928 
	C451.281311,455.019928 478.062622,455.019928 505.189880,455.019928 
	C505.316711,457.511719 505.503326,459.477997 505.504089,461.444366 
	C505.520844,503.764465 505.520020,546.084595 505.513306,588.404663 
	C505.512268,594.833252 505.490936,594.841370 498.871490,594.841492 
	C416.730499,594.843384 334.589478,594.842773 252.448486,594.842773 
	C250.502457,594.842773 248.556427,594.842712 246.319183,594.842712 
	C246.319183,548.086853 246.319183,501.999023 246.319183,455.019928 
	C305.386780,455.019928 364.443390,455.019928 424.000000,455.019928 
M354.500244,512.371460 
	C346.837830,512.365784 339.174286,512.281311 331.513611,512.394104 
	C328.528168,512.438049 327.297974,511.309631 327.381287,508.304749 
	C327.505890,503.810913 327.295959,499.307861 327.419373,494.813995 
	C327.545258,490.229218 325.544647,488.036865 320.892792,488.050385 
	C303.569092,488.100708 286.245087,488.094543 268.921356,488.050385 
	C264.855438,488.040009 262.552063,489.821808 262.545593,493.960297 
	C262.513336,514.614929 262.518982,535.269714 262.565735,555.924316 
	C262.573761,559.468079 264.410034,561.639648 268.072540,561.649231 
	C286.061951,561.696350 304.051727,561.705505 322.040985,561.631042 
	C325.713318,561.615845 327.372986,559.371216 327.371185,555.788452 
	C327.369080,551.624146 327.694366,547.432190 327.320770,543.302612 
	C326.870026,538.319946 328.936035,537.179260 333.608154,537.213623 
	C360.092255,537.408203 386.578491,537.302124 413.064026,537.320679 
	C414.848663,537.321960 416.633209,537.506409 418.926636,537.633911 
	C418.926636,543.678650 419.040924,549.307922 418.890991,554.930115 
	C418.767944,559.545288 420.807434,561.720947 425.408417,561.714050 
	C442.732178,561.687927 460.056030,561.696167 477.379852,561.711487 
	C481.615417,561.715271 483.939056,559.862427 483.934326,555.421692 
	C483.912750,535.099487 483.904297,514.777222 483.943481,494.455139 
	C483.951447,490.338959 481.986572,488.129852 477.946655,488.116364 
	C460.123505,488.056885 442.299835,488.052185 424.476868,488.139587 
	C420.970581,488.156769 418.921265,490.061981 418.936188,493.794373 
	C418.953522,498.125214 418.643677,502.479797 419.000702,506.780518 
	C419.363586,511.151947 417.916199,512.515991 413.467499,512.464661 
	C394.147278,512.241699 374.823059,512.370544 354.500244,512.371460 
z"/>
<path fill="#F2AD86" opacity="1.000000" stroke="none" 
	d="
M355.000244,512.371460 
	C374.823059,512.370544 394.147278,512.241699 413.467499,512.464661 
	C417.916199,512.515991 419.363586,511.151947 419.000702,506.780518 
	C418.643677,502.479797 418.953522,498.125214 418.936188,493.794373 
	C418.921265,490.061981 420.970581,488.156769 424.476868,488.139587 
	C442.299835,488.052185 460.123505,488.056885 477.946655,488.116364 
	C481.986572,488.129852 483.951447,490.338959 483.943481,494.455139 
	C483.904297,514.777222 483.912750,535.099487 483.934326,555.421692 
	C483.939056,559.862427 481.615417,561.715271 477.379852,561.711487 
	C460.056030,561.696167 442.732178,561.687927 425.408417,561.714050 
	C420.807434,561.720947 418.767944,559.545288 418.890991,554.930115 
	C419.040924,549.307922 418.926636,543.678650 418.926636,537.633911 
	C416.633209,537.506409 414.848663,537.321960 413.064026,537.320679 
	C386.578491,537.302124 360.092255,537.408203 333.608154,537.213623 
	C328.936035,537.179260 326.870026,538.319946 327.320770,543.302612 
	C327.694366,547.432190 327.369080,551.624146 327.371185,555.788452 
	C327.372986,559.371216 325.713318,561.615845 322.040985,561.631042 
	C304.051727,561.705505 286.061951,561.696350 268.072540,561.649231 
	C264.410034,561.639648 262.573761,559.468079 262.565735,555.924316 
	C262.518982,535.269714 262.513336,514.614929 262.545593,493.960297 
	C262.552063,489.821808 264.855438,488.040009 268.921356,488.050385 
	C286.245087,488.094543 303.569092,488.100708 320.892792,488.050385 
	C325.544647,488.036865 327.545258,490.229218 327.419373,494.813995 
	C327.295959,499.307861 327.505890,503.810913 327.381287,508.304749 
	C327.297974,511.309631 328.528168,512.438049 331.513611,512.394104 
	C339.174286,512.281311 346.837830,512.365784 355.000244,512.371460 
M474.572845,542.425659 
	C474.568268,528.797302 474.480011,515.168030 474.617584,501.541107 
	C474.652283,498.106415 473.166290,497.313629 470.116180,497.381042 
	C467.149872,497.446625 465.067017,497.623566 465.111450,501.584015 
	C465.284760,517.038635 465.214142,532.496521 465.150574,547.952820 
	C465.139435,550.660828 465.586548,552.560974 468.910126,552.274841 
	C470.526428,552.135681 472.164642,552.250793 474.572601,552.250793 
	C474.572601,548.942383 474.572601,546.170532 474.572845,542.425659 
M299.676788,543.405762 
	C299.672882,529.440674 299.562103,515.474243 299.732422,501.511261 
	C299.781342,497.502289 297.589844,497.447052 294.666016,497.382324 
	C291.586243,497.314148 290.167145,498.194305 290.196442,501.596252 
	C290.329559,517.056458 290.318939,532.518982 290.202545,547.979492 
	C290.178253,551.207886 291.262421,552.630920 294.520782,552.269653 
	C295.981232,552.107666 297.456696,552.080872 299.676666,551.947632 
	C299.676666,549.257996 299.676666,546.814514 299.676788,543.405762 
M397.499817,527.992310 
	C404.455688,527.992310 411.411560,527.992310 418.518555,527.992310 
	C418.518555,525.711609 418.518555,524.013184 418.518555,522.355103 
	C417.680603,522.146057 417.205688,521.924377 416.730499,521.923767 
	C388.238403,521.888428 359.746185,521.898804 331.254181,521.825439 
	C326.544830,521.813354 327.275421,524.487976 328.089020,527.992310 
	C350.926392,527.992310 373.713165,527.992310 397.499817,527.992310 
M428.155670,545.361633 
	C428.155670,547.465210 428.155670,549.568848 428.155670,551.530945 
	C437.223541,553.155518 437.390778,553.025146 437.391998,544.789856 
	C437.394104,530.481262 437.289398,516.171509 437.452545,501.864746 
	C437.494324,498.198486 435.966003,497.435791 432.698120,497.403809 
	C429.291290,497.370514 428.047119,498.421906 428.088867,501.964783 
	C428.255493,516.105042 428.156403,530.248474 428.155670,545.361633 
M455.970428,538.488892 
	C455.970428,525.079163 455.970428,511.669464 455.970428,498.001312 
	C452.695801,498.001312 450.028473,498.001312 447.199127,498.001312 
	C447.199127,516.164612 447.199127,533.855957 447.199127,551.779114 
	C450.190063,551.779114 452.867096,551.779114 455.970428,551.779114 
	C455.970428,547.399780 455.970428,543.441833 455.970428,538.488892 
M280.253204,498.024292 
	C272.051331,496.729187 271.936371,496.818207 271.935181,504.633759 
	C271.933044,518.598511 271.925873,532.563232 271.946259,546.527954 
	C271.948822,548.292969 272.104889,550.057800 272.191742,551.862366 
	C275.318634,551.862366 277.894989,551.862366 280.814667,551.862366 
	C280.814667,533.950684 280.814667,516.376587 280.253204,498.024292 
M318.064514,530.499878 
	C318.064514,519.743469 318.064514,508.987091 318.064514,498.001862 
	C314.750458,498.001862 312.081024,498.001862 309.277985,498.001862 
	C309.277985,516.176025 309.277985,533.878540 309.277985,551.779663 
	C312.271667,551.779663 314.954956,551.779663 318.064514,551.779663 
	C318.064514,544.741760 318.064514,538.120728 318.064514,530.499878 
z"/>
<path fill="#5866A3" opacity="1.000000" stroke="none" 
	d="
M474.572723,542.912231 
	C474.572601,546.170532 474.572601,548.942383 474.572601,552.250793 
	C472.164642,552.250793 470.526428,552.135681 468.910126,552.274841 
	C465.586548,552.560974 465.139435,550.660828 465.150574,547.952820 
	C465.214142,532.496521 465.284760,517.038635 465.111450,501.584015 
	C465.067017,497.623566 467.149872,497.446625 470.116180,497.381042 
	C473.166290,497.313629 474.652283,498.106415 474.617584,501.541107 
	C474.480011,515.168030 474.568268,528.797302 474.572723,542.912231 
z"/>
<path fill="#5866A3" opacity="1.000000" stroke="none" 
	d="
M299.676727,543.888428 
	C299.676666,546.814514 299.676666,549.257996 299.676666,551.947632 
	C297.456696,552.080872 295.981232,552.107666 294.520782,552.269653 
	C291.262421,552.630920 290.178253,551.207886 290.202545,547.979492 
	C290.318939,532.518982 290.329559,517.056458 290.196442,501.596252 
	C290.167145,498.194305 291.586243,497.314148 294.666016,497.382324 
	C297.589844,497.447052 299.781342,497.502289 299.732422,501.511261 
	C299.562103,515.474243 299.672882,529.440674 299.676727,543.888428 
z"/>
<path fill="#4B61A6" opacity="1.000000" stroke="none" 
	d="
M396.999878,527.992310 
	C373.713165,527.992310 350.926392,527.992310 328.089020,527.992310 
	C327.275421,524.487976 326.544830,521.813354 331.254181,521.825439 
	C359.746185,521.898804 388.238403,521.888428 416.730499,521.923767 
	C417.205688,521.924377 417.680603,522.146057 418.518555,522.355103 
	C418.518555,524.013184 418.518555,525.711609 418.518555,527.992310 
	C411.411560,527.992310 404.455688,527.992310 396.999878,527.992310 
z"/>
<path fill="#4F62A5" opacity="1.000000" stroke="none" 
	d="
M428.155640,544.876160 
	C428.156403,530.248474 428.255493,516.105042 428.088867,501.964783 
	C428.047119,498.421906 429.291290,497.370514 432.698120,497.403809 
	C435.966003,497.435791 437.494324,498.198486 437.452545,501.864746 
	C437.289398,516.171509 437.394104,530.481262 437.391998,544.789856 
	C437.390778,553.025146 437.223541,553.155518 428.155670,551.530945 
	C428.155670,549.568848 428.155670,547.465210 428.155640,544.876160 
z"/>
<path fill="#4B61A6" opacity="1.000000" stroke="none" 
	d="
M455.970428,538.986450 
	C455.970428,543.441833 455.970428,547.399780 455.970428,551.779114 
	C452.867096,551.779114 450.190063,551.779114 447.199127,551.779114 
	C447.199127,533.855957 447.199127,516.164612 447.199127,498.001312 
	C450.028473,498.001312 452.695801,498.001312 455.970428,498.001312 
	C455.970428,511.669464 455.970428,525.079163 455.970428,538.986450 
z"/>
<path fill="#4B61A6" opacity="1.000000" stroke="none" 
	d="
M280.533936,498.413391 
	C280.814667,516.376587 280.814667,533.950684 280.814667,551.862366 
	C277.894989,551.862366 275.318634,551.862366 272.191742,551.862366 
	C272.104889,550.057800 271.948822,548.292969 271.946259,546.527954 
	C271.925873,532.563232 271.933044,518.598511 271.935181,504.633759 
	C271.936371,496.818207 272.051331,496.729187 280.533936,498.413391 
z"/>
<path fill="#4B61A6" opacity="1.000000" stroke="none" 
	d="
M318.064514,530.999817 
	C318.064514,538.120728 318.064514,544.741760 318.064514,551.779663 
	C314.954956,551.779663 312.271667,551.779663 309.277985,551.779663 
	C309.277985,533.878540 309.277985,516.176025 309.277985,498.001862 
	C312.081024,498.001862 314.750458,498.001862 318.064514,498.001862 
	C318.064514,508.987091 318.064514,519.743469 318.064514,530.999817 
z"/>
</svg>